# xmcd
#
# Track frame offsets:
#	210
#	12142
#	25487
#	36605
#	51107
#	63817
#	77162
#	90020
#	103070
#	118415
#	129417
#	143292
#	156150
#	169957
#	183087
#	195747
#	208277
#	220412
#	233507
#	245815
#	257142
#
# Disc length: 3552 seconds
#
# Revision: 0
# Processed by: cddbd v1.5.2PL0 Copyright (c) Steve Scherf et al.
# Submitted via: audiograbber 1.83.01
#
DISCID=270dde15
DTITLE=J.B. Lenoir - 1951 - 1954:  His JOB Recordings
DYEAR=1954
DGENRE=Blues
TTITLE0=Let's Roll - 2
TTITLE1=People Are Meddling (In Our Affairs)
TTITLE2=I Have Married
TTITLE3=I'll Die Tryin'
TTITLE4=The Mountain
TTITLE5=How Much More
TTITLE6=Let's Roll - 1
TTITLE7=The Mojo - 1
TTITLE8=Slow Down Woman - 1
TTITLE9=I Want My Baby - 1
TTITLE10=How Can I Leave
TTITLE11=Play A Little While
TTITLE12=Louise
TTITLE13=The Mojo - 4
TTITLE14=Slow Down Woman - 2
TTITLE15=I Want My Baby - 4
TTITLE16=When I Was Young
TTITLE17=Bassology
TTITLE18=Worried About My Baby
TTITLE19=Livin' In The White House
TTITLE20=Please Don't 
EXTD=
EXTT0=
EXTT1=
EXTT2=
EXTT3=
EXTT4=
EXTT5=
EXTT6=
EXTT7=
EXTT8=
EXTT9=
EXTT10=
EXTT11=
EXTT12=
EXTT13=
EXTT14=
EXTT15=
EXTT16=
EXTT17=
EXTT18=
EXTT19=
EXTT20=
PLAYORDER=
